<?xml version="1.0" encoding="utf-8"?>
<!-- Svg Vector Icons : http://www.onlinewebfonts.com/icon -->
<!DOCTYPE svg PUBLIC "-//W3C//DTD SVG 1.1//EN" "http://www.w3.org/Graphics/SVG/1.1/DTD/svg11.dtd">
<svg version="1.1" xmlns="http://www.w3.org/2000/svg" xmlns:xlink="http://www.w3.org/1999/xlink" x="0px" y="0px" viewBox="0 0 1000 1000" enable-background="new 0 0 1000 1000" xml:space="preserve">
<metadata> Svg Vector Icons : http://www.onlinewebfonts.com/icon </metadata>
<g><path fill="white" d="M856.7,560.5h92c34.5,0,40.7,8.8,41.1,28.4c0.3,15.1,0.8,32-5.6,39.1c-12.7,14.3-41.3,11.9-65.9-10.3c-15.4-13.9-43-15.7-61.7-15.1v238.4c0,55.9-45.8,101.7-101.7,101.7H246.4c-55.9,0-101.7-45.8-101.7-101.7V602.7c-18.7-0.7-47,1-62.5,15.1c-24.6,22.2-53.2,24.6-65.9,10.3C9.9,621,9.2,604,10.7,589c2.3-22.9,9.2-28.4,45.2-28.4h88.8h22.4h666.3H856.7L856.7,560.5L856.7,560.5z M616.2,241.2c31.5-19.9,22-40.8,12-62.7c-16.7-36.6-34-74.4-0.5-121.3l52.8,37.6c-11.8,16.5-2.5,37,6.6,56.8c22,48.3,43.1,94.4-36.4,144.4L616.2,241.2L616.2,241.2L616.2,241.2z M447.6,241.2c31.5-19.9,22-40.8,12-62.7c-16.7-36.6-34-74.4-0.5-121.3l52.8,37.6c-11.8,16.5-2.4,37,6.6,56.8c22,48.3,43.1,94.4-36.4,144.4L447.6,241.2L447.6,241.2L447.6,241.2z M268.6,241.2c31.5-19.9,22-40.8,12-62.7c-16.7-36.6-34-74.4-0.5-121.3l52.8,37.6c-11.8,16.5-2.5,37,6.6,56.8c22,48.3,43.1,94.4-36.4,144.4L268.6,241.2L268.6,241.2L268.6,241.2z M194.3,631.1v168.9c0,12.8,10.4,23.1,23.1,23.1c12.8,0,23.2-10.3,23.2-23.1V631.1c0-12.8-10.4-23.2-23.2-23.2C204.7,608,194.3,618.3,194.3,631.1L194.3,631.1L194.3,631.1z M246.4,424.6h216l-14.2-57c-3.8-15.3,12.9-28.6,28.6-28.6h39.7c15.7,0,32.4,13.4,28.6,28.6l-14.3,57H755c51.7,0,94.6,39,100.9,89H145.4C151.7,463.6,194.7,424.6,246.4,424.6L246.4,424.6z"/></g>
</svg>